<?xml version="1.0" standalone="no"?>
<!DOCTYPE svg PUBLIC "-//W3C//DTD SVG 1.1//EN" "http://www.w3.org/Graphics/SVG/1.1/DTD/svg11.dtd" >
<svg xmlns="http://www.w3.org/2000/svg">
<metadata></metadata>
<defs>
<font id="webfont-regularregular" horiz-adv-x="1187" >
<font-face units-per-em="2048" ascent="1638" descent="-410" />
<missing-glyph horiz-adv-x="512" />
<glyph horiz-adv-x="1024" />
<glyph horiz-adv-x="1024" />
<glyph unicode="&#xd;" horiz-adv-x="0" />
<glyph unicode=" "  horiz-adv-x="512" />
<glyph unicode="&#x09;" horiz-adv-x="512" />
<glyph unicode="&#xa0;" horiz-adv-x="512" />
<glyph unicode="!" horiz-adv-x="671" d="M225 96q0 42 31 78q30 35 80 35t80 -35q30 -34 30 -78t-30 -78t-80 -34t-80 34q-31 36 -31 78zM262 393v1057h148v-1057h-148z" />
<glyph unicode="&#x22;" horiz-adv-x="829" d="M205 969v481h123v-481h-123zM502 969v481h123v-481h-123z" />
<glyph unicode="#" horiz-adv-x="1138" d="M72 438v123h225l45 332h-221v123h239l60 434h125l-60 -434h273l59 434h125l-59 -434h184v-123h-203l-45 -332h195v-123h-211l-62 -438h-125l62 438h-272l-62 -438h-125l62 438h-209zM422 561h272l45 332h-272z" />
<glyph unicode="$" d="M104 188l117 82q25 -44 68 -80q40 -34 86 -55q55 -26 86 -35q43 -12 76 -12l12 594q-71 21 -141 51q-69 29 -127 78q-56 44 -95 115q-36 65 -36 161q0 89 30 160q30 70 86 123q55 52 123 78q73 28 152 31v147h98v-147q40 -2 102 -13q53 -9 105 -30q39 -17 94 -52 q43 -28 80 -71l-113 -86q-46 67 -121 102q-72 34 -147 37v-563q80 -28 152 -62q76 -36 133 -84q56 -50 94 -122q37 -70 37 -173q0 -84 -31 -157q-30 -71 -86 -121q-59 -53 -135 -80q-80 -28 -166 -31v-147h-98v147q-138 3 -250 62t-185 153zM285 1096q0 -112 69 -172 q73 -63 185 -93v527q-107 -3 -181 -74q-73 -70 -73 -188zM635 88q44 3 94 18q45 14 88 50q40 34 64 86t24 129q0 106 -76 176q-77 71 -192 108z" />
<glyph unicode="%" horiz-adv-x="1705" d="M76 1116q0 74 28 141q27 64 78 115q50 47 115 74q69 29 141 29q73 0 142 -29q64 -27 114 -74q51 -51 78 -115q29 -69 29 -141t-29 -141q-26 -62 -78 -111q-52 -52 -114 -78q-67 -28 -142 -28q-74 0 -141 28q-64 27 -115 78q-52 49 -78 111q-28 67 -28 141zM201 1116 q0 -50 18 -94t53 -74q28 -32 74 -51q44 -18 92 -18t92 18q43 18 76 51q31 31 49 74q19 46 19 94t-19 94q-16 37 -49 76q-39 33 -76 49q-46 19 -92 19t-92 -19q-43 -18 -74 -49q-37 -37 -53 -76q-18 -44 -18 -94zM338 -8l924 1521l104 -55l-922 -1521zM905 334q0 72 29 141 q27 64 78 115q50 47 114 74q67 28 142 28q74 0 141 -28q65 -27 115 -74q51 -51 78 -115q28 -67 28 -141t-28 -141q-26 -62 -78 -111q-51 -51 -115 -78q-69 -29 -141 -29q-73 0 -142 29q-62 26 -114 78q-52 49 -78 111q-29 69 -29 141zM1030 334q0 -48 19 -94q18 -44 53 -74 q28 -32 74 -51t92 -19t92 19q43 18 76 51q31 31 49 74q18 44 18 94t-18 94q-16 37 -49 76q-39 33 -76 49q-44 18 -92 18t-92 -18q-43 -18 -74 -49q-37 -37 -53 -76q-19 -46 -19 -94z" />
<glyph unicode="&#x26;" horiz-adv-x="1441" d="M98 385q0 80 25 147q23 62 72 117q47 53 106 92q66 44 133 72q-39 39 -65 74q-42 57 -56 82q-29 49 -41 86q-16 50 -16 96q0 78 29 147q27 64 77 111q52 45 115 66q68 22 139 22q68 0 136 -22q60 -20 112 -62q48 -45 74 -104q29 -66 29 -140q0 -66 -29 -129 q-26 -56 -74 -104t-104 -84q-59 -38 -121 -68l338 -348l201 352h165l-258 -442l326 -336h-205l-205 215q-89 -123 -194 -182q-106 -59 -252 -59q-97 0 -176 26q-85 28 -146 80q-60 48 -98 123q-37 73 -37 172zM246 381q0 -61 24 -113q23 -50 68 -86q38 -35 96 -57 q56 -21 117 -21q117 0 199 54q79 52 149 159l-387 400q-130 -58 -199 -139q-67 -79 -67 -197zM401 1147q0 -33 17 -82q12 -35 41 -80q18 -28 53 -67q33 -36 49 -48q37 16 96 50q45 26 86 61l-2 6q39 36 62 80q24 47 24 100q0 89 -59 148q-57 57 -147 57q-97 0 -158 -61 q-62 -62 -62 -164z" />
<glyph unicode="'" horiz-adv-x="532" d="M205 969v481h123v-481h-123z" />
<glyph unicode="(" horiz-adv-x="614" d="M66 586q0 125 22 260q20 124 62 248q43 125 94 221q52 99 121 190l106 -67q-63 -88 -109 -181q-48 -95 -83 -206v-4q-36 -104 -58 -226q-20 -111 -20 -235q0 -125 20 -236q22 -120 58 -225q36 -114 83 -207q45 -89 109 -180l-106 -68q-67 89 -121 191q-52 98 -94 223 q-41 119 -62 244q-22 132 -22 258z" />
<glyph unicode=")" horiz-adv-x="614" d="M143 -258q64 91 109 180q46 92 86 207v4q33 104 55 225q21 117 21 236q0 118 -21 235q-22 123 -55 226q-40 115 -86 207q-45 89 -109 180l107 67q62 -82 119 -190q57 -107 96 -221q40 -118 61 -248q23 -141 23 -260q0 -120 -23 -258q-22 -131 -61 -244q-39 -114 -96 -223 q-59 -111 -119 -191z" />
<glyph unicode="*" horiz-adv-x="909" d="M63 1135l43 114l287 -92v293h123v-293l287 92l43 -114l-289 -93l184 -247l-98 -74l-188 254l-189 -254l-98 74l184 247z" />
<glyph unicode="+" horiz-adv-x="1363" d="M160 559v123h461v461h122v-461h461v-123h-461v-461h-122v461h-461z" />
<glyph unicode="," horiz-adv-x="532" d="M92 -287l137 482h146l-166 -482h-117z" />
<glyph unicode="-" horiz-adv-x="655" d="M98 438v117h459v-117h-459z" />
<glyph unicode="." horiz-adv-x="532" d="M156 96q0 44 30 78q30 35 80 35t80 -35q31 -36 31 -78t-31 -78q-30 -34 -80 -34t-80 34t-30 78z" />
<glyph unicode="/" horiz-adv-x="757" d="M10 2l621 1485l117 -41l-619 -1483z" />
<glyph unicode="0" d="M119 723q0 133 22 278q20 134 78 246q54 104 148 174q92 68 229 68q135 0 227 -68q94 -70 148 -174q56 -109 80 -246q24 -138 24 -278q0 -142 -24 -277q-24 -134 -80 -243q-55 -106 -148 -172q-94 -66 -227 -66q-135 0 -229 66q-93 66 -148 172q-58 112 -78 243 q-22 141 -22 277zM266 723q0 -107 15 -221q16 -120 51 -203q40 -98 100 -152q65 -59 160 -59t160 59q60 54 100 152q38 90 53 203q17 129 17 221t-17 221q-15 114 -53 207q-40 98 -100 152q-65 59 -160 59t-160 -59q-60 -54 -100 -152q-35 -85 -51 -207q-15 -114 -15 -221z " />
<glyph unicode="1" d="M233 1147l369 303h131v-1450h-147v1268l-262 -224z" />
<glyph unicode="2" d="M98 2v154l594 600q46 46 66 71q34 42 55 78q25 42 39 86q14 43 14 96q0 62 -22 117q-19 49 -62 88q-44 38 -92 54q-52 18 -110 18q-117 0 -197 -74q-82 -75 -102 -186l-146 29q15 78 55 141q39 63 99 110q61 48 131 74q73 27 160 27q85 0 168 -25q80 -24 139 -74 q59 -52 96 -126q37 -73 37 -173q0 -67 -19 -129q-16 -53 -49 -110q-46 -70 -75 -103q-36 -41 -91 -96l-522 -518h768l-6 -129h-928z" />
<glyph unicode="3" d="M96 260l140 51q38 -107 122 -164q86 -59 197 -59q57 0 121 23q58 21 104 61q43 40 70 98q27 59 27 131q0 83 -31 140q-29 54 -84 90q-51 33 -121 49q-72 16 -139 16h-64l-6 127h64q70 0 131 15q63 15 108 49q48 31 74 82q27 53 27 123q0 56 -23 110q-21 49 -61 86 q-41 35 -93 53q-55 19 -110 19q-94 0 -164 -43q-71 -44 -115 -127l-125 65q67 117 172 172q106 56 238 56q84 0 164 -25q76 -24 135 -74q58 -49 92 -122q35 -75 35 -168q0 -128 -72 -215q-73 -89 -178 -115v-4q124 -27 209 -121q84 -93 84 -240q0 -106 -37 -184 q-37 -79 -102 -135q-64 -58 -150 -88q-88 -31 -180 -31q-157 0 -279 78q-118 75 -180 221z" />
<glyph unicode="4" d="M86 350v144l614 956h193v-971h213v-129h-213v-350h-143v350h-664zM240 479h510v805h-5z" />
<glyph unicode="5" d="M111 225l133 60q42 -92 118 -142q80 -53 177 -53q71 0 135 25q61 24 108 71q49 49 72 111q25 67 25 137q0 77 -29 146q-26 62 -74 110q-49 46 -114 70t-142 24q-73 0 -153 -22q-73 -20 -148 -60l14 748h740l-6 -129h-605l-10 -449q53 17 99 25q47 8 102 8q106 0 188 -33 q87 -35 150 -92q62 -59 98 -145q35 -84 35 -184q0 -105 -35 -195q-36 -92 -98 -154q-64 -64 -154 -102q-87 -37 -196 -37q-155 0 -265 72q-106 69 -165 190z" />
<glyph unicode="6" d="M123 420q0 118 39 209q45 104 92 184l395 637h170l-407 -631l4 -4q35 24 92 39q55 14 115 14q102 0 176 -32q81 -35 139 -93q57 -57 92 -141t35 -182q0 -100 -35 -184q-36 -86 -98 -142q-63 -57 -150 -92t-188 -35t-188 35t-150 92q-62 56 -98 142q-35 84 -35 184z M272 420q0 -69 25 -133q24 -61 68 -105q44 -47 102 -71q61 -25 129 -25t129 25q58 24 102 71q44 44 68 105q25 64 25 133q0 64 -23 131q-20 59 -61 106q-44 44 -105 68q-64 25 -135 25t-135 -25q-62 -24 -103 -68h2q-45 -48 -65 -106q-23 -67 -23 -131z" />
<glyph unicode="7" d="M160 1319v131h860v-135l-584 -1315h-166l600 1319h-710z" />
<glyph unicode="8" d="M123 381q0 76 20 135q22 65 58 115q39 51 86 84q51 35 108 53v4q-45 14 -90 47q-38 28 -67 78q-29 46 -43 96q-17 59 -17 109q0 93 33 160q34 70 92 122t129 78q79 29 158 29t158 -29q72 -26 133 -78q53 -50 88 -122q32 -65 32 -160q0 -53 -16 -109q-14 -50 -43 -96 q-28 -48 -68 -78q-45 -33 -90 -47l-2 -6q122 -35 197 -135q78 -104 78 -250q0 -97 -37 -172q-38 -77 -102 -129q-65 -56 -150 -86q-88 -31 -178 -31t-178 31q-85 30 -150 86q-64 52 -102 129q-37 75 -37 172zM274 395q0 -59 23 -123q20 -56 65 -98q41 -41 99 -65 q61 -25 129 -25t129 25q58 24 102 65q42 42 62 98q22 61 22 123q0 63 -22 121q-21 55 -62 96q-44 41 -102 62q-61 22 -129 22t-129 -22q-58 -21 -99 -62q-44 -41 -65 -96q-23 -61 -23 -121zM326 1090q0 -61 20 -105q21 -47 57 -80q39 -36 86 -53q49 -18 105 -18q54 0 104 18 q47 17 86 53q37 34 58 80q20 44 20 105t-20 108t-56 86q-37 34 -86 55q-50 21 -106 21q-58 0 -107 -21q-50 -21 -84 -55q-36 -36 -57 -86q-20 -47 -20 -108z" />
<glyph unicode="9" d="M127 1030q0 100 35 187q36 89 98 145q63 57 150 92t188 35t188 -35t150 -92q62 -56 98 -145q35 -87 35 -187q0 -118 -39 -209q-45 -104 -92 -184l-395 -637h-170l407 631l-4 4q-35 -24 -92 -39q-55 -14 -115 -14q-102 0 -176 32q-81 35 -139 93q-57 57 -92 141t-35 182z M270 1030q0 -64 23 -131q20 -59 65 -104q39 -45 103 -70t135 -25t135 25q62 24 105 70h-2q40 43 61 104q23 67 23 131q0 67 -25 131q-23 59 -68 107q-43 43 -102 67q-61 25 -129 25t-129 -25t-103 -67q-43 -46 -67 -107q-25 -64 -25 -131z" />
<glyph unicode=":" horiz-adv-x="614" d="M197 96q0 44 30 78q30 35 80 35t80 -35q31 -36 31 -78t-31 -78q-30 -34 -80 -34t-80 34t-30 78zM197 858q0 44 30 78q30 35 80 35t80 -35q31 -36 31 -78t-31 -78q-30 -35 -80 -35t-80 35q-30 34 -30 78z" />
<glyph unicode=";" horiz-adv-x="614" d="M119 -287l137 482h152l-166 -482h-123zM197 858q0 44 30 78q30 35 80 35t80 -35q31 -36 31 -78t-31 -78q-30 -35 -80 -35t-80 35q-30 34 -30 78z" />
<glyph unicode="&#x3c;" horiz-adv-x="1363" d="M160 573v95l1044 487v-123l-878 -411l878 -412v-123z" />
<glyph unicode="=" horiz-adv-x="1363" d="M160 406v122h1044v-122h-1044zM160 713v123h1044v-123h-1044z" />
<glyph unicode="&#x3e;" horiz-adv-x="1363" d="M160 86v123l878 412l-878 411v123l1044 -487v-95z" />
<glyph unicode="?" horiz-adv-x="987" d="M98 1135q30 159 142 251q113 93 270 93q79 0 156 -25q76 -25 127 -70q55 -49 84 -114q30 -68 30 -154q0 -69 -14 -115q-14 -45 -39 -88q-28 -43 -61 -71q-9 -8 -34 -30.5t-40 -35.5q-52 -42 -74 -61q-28 -25 -49 -60q-19 -36 -27 -73q-8 -36 -8 -95l-6 -96h-143v123 q0 58 12 104q11 44 37 84q19 34 53 68q41 41 61 59l58 52q52 40 86 92q35 53 35 133q0 57 -21 104q-21 46 -55 76q-39 34 -80 47q-53 17 -98 17q-110 0 -178 -68q-69 -69 -84 -172zM387 94q0 42 31 78q30 35 80 35t80 -35q30 -34 30 -78t-30 -78t-80 -34t-80 34 q-31 36 -31 78z" />
<glyph unicode="@" horiz-adv-x="1638" d="M68 733q0 164 61 301q63 140 168 240q106 100 250 160q142 59 305 59q136 0 270 -41q132 -40 234 -123q100 -81 162 -205q61 -122 61 -288q0 -128 -33 -218q-35 -97 -86 -159q-58 -68 -127 -97q-71 -30 -151 -30q-93 0 -135 45q-43 46 -43 104h-9q-11 -25 -30 -47 q-24 -28 -56 -47q-42 -26 -75 -37q-46 -16 -95 -16q-69 0 -125 24q-52 23 -92 72q-40 43 -61 105q-21 61 -21 135q0 81 29 170q27 81 80 147q53 65 129 105q72 38 172 38q80 0 133 -36q59 -40 78 -88h8l21 92h127l-82 -381q-6 -30 -7 -37t-3 -21.5t-3 -21.5q-5 -40 -6 -47 q-2 -14 -2 -37q0 -13 4 -37q2 -15 17 -33q9 -14 28 -24q20 -10 54 -10q49 0 94 28q41 26 73 78q29 53 43 117q17 76 17 145q0 133 -43 234q-43 100 -121 172q-77 69 -188 104q-110 35 -238 35q-143 0 -256 -49q-115 -50 -197 -135t-129 -203q-45 -113 -45 -256 q0 -144 47 -262q45 -113 134 -199q84 -84 200 -127t262 -43q183 0 314 55t237 158l68 -84q-120 -123 -283 -184q-165 -62 -360 -62q-175 0 -320 56q-143 55 -245 157q-103 103 -158 242q-55 140 -55 307zM588 672q0 -28 6 -66q5 -33 24 -69q17 -33 50 -56q31 -22 80 -22 q68 0 118 35q51 36 80 86q30 53 45 110q15 58 15 111q0 41 -9 78q-9 39 -26 67l8 2q-24 31 -55 47q-36 19 -82 19q-61 0 -109 -31q-44 -28 -80 -80q-34 -49 -49 -110q-16 -66 -16 -121z" />
<glyph unicode="A" horiz-adv-x="1433" d="M20 0l627 1450h144l622 -1450h-164l-159 381h-750l-158 -381h-162zM395 516h639l-319 770z" />
<glyph unicode="B" horiz-adv-x="1302" d="M193 0l4 1448h432q83 0 166 -18q80 -17 151 -60q65 -44 109 -115q43 -70 43 -178q0 -115 -70 -200q-71 -87 -186 -113v-4q139 -15 233 -109q92 -92 92 -252q0 -90 -37 -163q-38 -75 -108 -127q-72 -53 -172 -80q-110 -29 -227 -29h-430zM340 121h274q76 0 154 16 q75 15 129 49q53 35 86 88t33 132q0 145 -98 215q-100 71 -277 71h-301v-571zM340 813h297q53 0 108 12q52 11 101 43q46 27 74 78t28 121q0 68 -28 119q-27 50 -74 80q-49 31 -111 43q-65 12 -135 12h-256z" />
<glyph unicode="C" horiz-adv-x="1474" d="M104 723q0 168 58 305q59 139 160 240q100 100 239 159q137 58 301 58q71 0 158 -17q74 -14 145 -43q69 -31 123 -73q52 -40 92 -97l-123 -90q-19 31 -59 68q-36 33 -90 61q-57 29 -113 43q-70 17 -131 17q-144 0 -252 -51q-112 -53 -188 -138q-77 -89 -117 -202 q-41 -115 -41 -240q0 -127 43 -240t121 -200q78 -90 188 -142q108 -51 250 -51q129 0 240 51q114 52 190 166l107 -74q-36 -53 -90 -104q-48 -46 -121 -86q-71 -38 -154 -59q-90 -23 -182 -23q-167 0 -301 57q-139 59 -240 160t-157 240t-56 305z" />
<glyph unicode="D" horiz-adv-x="1550" d="M193 0v1450h481q139 0 270 -45q135 -47 246 -135q108 -91 176 -228q68 -136 68 -317t-68 -317q-69 -139 -176 -226q-109 -90 -246 -137q-131 -45 -270 -45h-481zM340 123h293q168 0 287 51q122 52 202 135q81 84 121 191q41 109 41 221t-41 221q-40 107 -121 191 q-80 83 -202 135q-119 51 -287 51h-293v-1196z" />
<glyph unicode="E" horiz-adv-x="1212" d="M193 0v1450h899v-131h-752v-500h702v-129h-702v-559h776v-131h-923z" />
<glyph unicode="F" horiz-adv-x="1150" d="M193 0v1450h874v-131h-727v-504h676v-129h-676v-686h-147z" />
<glyph unicode="G" horiz-adv-x="1595" d="M113 725q0 171 57 305q59 139 160 240q102 102 239 160q134 57 301 57q179 0 304 -51q130 -53 221 -144l-105 -106q-77 81 -180 123q-104 43 -240 43q-139 0 -249 -52q-115 -54 -189 -137q-79 -91 -121 -202q-43 -113 -43 -240t43 -240t121 -200q75 -84 189 -138 q108 -51 249 -51q124 0 226 27q103 27 166 67v441h-338v129h485v-654q-117 -69 -258 -104q-140 -35 -285 -35q-167 0 -301 57q-137 58 -239 160q-103 103 -158 240t-55 305z" />
<glyph unicode="H" horiz-adv-x="1470" d="M193 0v1450h147v-629h790v629h148v-1450h-148v686h-790v-686h-147z" />
<glyph unicode="I" horiz-adv-x="532" d="M193 0v1450h147v-1450h-147z" />
<glyph unicode="J" horiz-adv-x="1007" d="M51 258l135 33q15 -86 78 -146q62 -59 160 -59q72 0 125 29q51 28 80 73q30 51 41 109q12 62 12 127v1022h147v-1032q0 -67 -16 -152q-15 -78 -59 -147q-44 -68 -119 -111q-76 -43 -197 -43q-154 0 -258 84q-102 82 -129 213z" />
<glyph unicode="K" horiz-adv-x="1286" d="M193 0v1450h147v-651h2l690 651h211l-731 -657l772 -793h-217l-725 772h-2v-772h-147z" />
<glyph unicode="L" horiz-adv-x="1044" d="M193 0v1450h147v-1319h676v-131h-823z" />
<glyph unicode="M" horiz-adv-x="1814" d="M193 0v1450h225l491 -1200h2l486 1200h225v-1450h-147v1260h-5l-524 -1260h-78l-524 1260h-4v-1260h-147z" />
<glyph unicode="N" horiz-adv-x="1564" d="M193 0v1450h184l844 -1235h4v1235h147v-1450h-184l-844 1247h-4v-1247h-147z" />
<glyph unicode="O" horiz-adv-x="1740" d="M113 727q0 171 57 305q59 139 160 240q102 102 239 160q134 57 301 57t301 -57q139 -59 240 -160t160 -240q57 -134 57 -305t-57 -305q-59 -139 -160 -240q-99 -99 -240 -159q-137 -58 -301 -58t-301 58q-139 59 -239 159q-101 101 -160 240q-57 134 -57 305zM276 723 q0 -125 41 -240t117 -200q75 -84 189 -138q108 -51 249 -51q142 0 250 51q114 54 189 138q75 83 116 200q41 115 41 240t-41 240t-116 202q-75 84 -189 138q-108 51 -250 51q-141 0 -249 -51q-114 -54 -189 -138q-77 -89 -117 -202q-41 -115 -41 -240z" />
<glyph unicode="P" d="M193 0l6 1456h409q112 0 201 -24q87 -24 154 -72q63 -48 98 -123t35 -172q0 -99 -37 -172q-39 -76 -101 -121q-65 -50 -157 -74t-203 -24h-258v-674h-147zM346 807h250q176 0 264 67q90 69 90 197q0 135 -92 197q-91 61 -262 61h-250v-522z" />
<glyph unicode="Q" horiz-adv-x="1726" d="M113 745q0 165 55 299q57 138 154 238q99 99 233 154t293 55q157 0 291 -55t233 -154q97 -100 154 -238q55 -134 55 -299q0 -192 -86 -352q-85 -158 -256 -258v-4h438v-129h-829q-159 0 -293 55q-136 56 -233 156q-99 99 -154 233t-55 299zM268 745q0 -121 41 -233 t115 -195q73 -85 182 -135q107 -49 244 -49q133 0 240 49t184 135q74 83 115 195t41 233q0 122 -41 234q-40 110 -115 197q-78 85 -184 133q-107 49 -240 49q-137 0 -244 -49t-182 -133q-75 -87 -115 -197q-41 -112 -41 -234z" />
<glyph unicode="R" horiz-adv-x="1226" d="M190 -2v1450h426q108 0 199 -21q94 -22 160 -67q64 -46 102 -121q37 -73 37 -180q0 -77 -29 -146q-26 -62 -77 -110q-52 -52 -117 -78q-71 -28 -148 -37l424 -690h-180l-401 678h-246l-2 -678h-148zM340 803h256q179 0 274 65q97 66 97 195q0 71 -27 121t-74 80 q-46 30 -114 45q-63 14 -150 14h-262v-520z" />
<glyph unicode="S" horiz-adv-x="1155" d="M102 182l127 94q46 -76 133 -129q86 -53 201 -53q51 0 113 19q58 18 104 55q47 35 76 86q31 54 31 123q0 76 -31 127q-30 49 -80 84t-112 55q-90 29 -136 43q-59 17 -141 49q-68 26 -125 74q-56 47 -90 113q-35 68 -35 165q0 105 43 181q43 75 111 125q69 51 149 71 q90 23 162 23q146 0 252 -53t158 -123l-115 -80q-45 62 -121 104q-74 41 -178 41q-50 0 -109 -16q-53 -14 -100 -49q-48 -36 -74 -86q-28 -54 -28 -123q0 -72 26 -117t74 -76q43 -34 98 -55q83 -31 117 -43q34 -11 154 -53q77 -27 139 -74q58 -44 100 -117q39 -68 39 -178 q0 -109 -43 -188q-43 -78 -108 -131q-66 -51 -154 -76q-89 -25 -172 -25q-59 0 -129 13q-57 11 -123 41q-58 27 -110 67q-54 42 -93 92z" />
<glyph unicode="T" horiz-adv-x="1167" d="M25 1319v131h1118v-131h-486v-1319h-147v1319h-485z" />
<glyph unicode="U" horiz-adv-x="1454" d="M182 541v909h148v-893q0 -93 20 -172q21 -81 68 -147q46 -64 123 -105t186 -41t186 41t123 105q47 66 68 147q20 79 20 172v893h148v-909q0 -85 -25 -191q-24 -102 -86 -188q-63 -88 -166 -142q-104 -55 -268 -55t-268 55q-103 54 -166 142q-62 86 -86 188 q-25 106 -25 191z" />
<glyph unicode="V" horiz-adv-x="1275" d="M6 1450h160l471 -1260h4l471 1260h158l-555 -1450h-156z" />
<glyph unicode="W" horiz-adv-x="1990" d="M29 1450h155l359 -1247h4l362 1247h176l363 -1247h4l354 1247h156l-428 -1450h-172l-365 1245h-4l-364 -1245h-172z" />
<glyph unicode="X" horiz-adv-x="1329" d="M39 0l532 762l-485 688h184l398 -586l395 586h176l-481 -690l532 -760h-184l-442 653l-441 -653h-184z" />
<glyph unicode="Y" horiz-adv-x="1232" d="M0 1450h184l437 -702l440 702h172l-543 -825v-625h-147v625z" />
<glyph unicode="Z" horiz-adv-x="1171" d="M63 0v123l848 1196h-825v131h1010v-123l-846 -1196h858v-131h-1045z" />
<glyph unicode="[" horiz-adv-x="614" d="M119 -319v1818h332v-110h-197v-1598h197v-110h-332z" />
<glyph unicode="\" horiz-adv-x="757" d="M10 1446l117 41l621 -1485l-119 -39z" />
<glyph unicode="]" horiz-adv-x="614" d="M164 -209h196v1598h-196v110h332v-1818h-332v110z" />
<glyph unicode="^" horiz-adv-x="1363" d="M164 563l469 887h98l469 -887h-127l-391 740l-391 -740h-127z" />
<glyph unicode="_" horiz-adv-x="1024" d="M0 -154h1024v-102h-1024v102z" />
<glyph unicode="`" horiz-adv-x="491" d="M-20 1450h186l205 -295h-121z" />
<glyph unicode="a" horiz-adv-x="1093" d="M106 258q0 111 56 176q54 63 151 98q103 33 217 41q150 11 254 11l-6 30q0 125 -65 187q-64 61 -191 61q-84 0 -160 -31q-73 -30 -124 -81l-78 92q57 57 157 98q95 39 222 39q71 0 145 -23q65 -20 119 -65q53 -44 80 -109q28 -67 28 -153v-420q0 -37 4 -115q3 -51 13 -98 h-125q-8 45 -10 74q-5 68 -5 80h-4q-67 -98 -147 -140q-82 -43 -201 -43q-48 0 -114 17q-60 15 -105 49q-50 35 -80 90q-31 57 -31 135zM252 270q0 -52 18 -86q17 -32 54 -55q38 -23 73 -31q45 -10 80 -10q70 0 131 25q58 24 99 71q40 43 61 101q20 56 20 123v71l-45 -4 q-87 0 -172 -6q-78 -5 -157 -29q-71 -21 -117 -61q-45 -39 -45 -109z" />
<glyph unicode="b" horiz-adv-x="1304" d="M188 -2v1548h140v-755h4q61 93 160 143q98 49 202 49q117 0 205 -39q98 -44 158 -106q60 -63 100 -160q37 -90 37 -199q0 -108 -37 -198q-40 -97 -100 -160q-61 -64 -158 -107q-88 -39 -205 -39q-100 0 -202 48q-97 46 -160 139l-4 -2v-162h-140zM309 479q0 -77 29 -153 q26 -68 78 -123q49 -52 116 -82q70 -31 148 -31q84 0 154 31q65 29 114 84v2q46 52 70 123q24 70 24 151t-24 152t-70 123t-114 82t-154 30q-80 0 -148 -30q-67 -30 -116 -82q-52 -55 -78 -123q-29 -76 -29 -154z" />
<glyph unicode="c" horiz-adv-x="1024" d="M117 483q0 111 37 201q39 95 104 160q62 65 160 104q93 37 211 37q96 0 194 -43q99 -44 160 -125l-102 -63q-33 53 -103 92q-67 37 -145 37q-82 0 -152 -31q-68 -30 -114 -82q-50 -53 -74 -123q-25 -73 -25 -153q0 -81 25 -154q23 -68 72 -123t114 -84q70 -31 152 -31 q90 0 155 35q64 35 105 90l104 -77q-61 -76 -151 -123q-86 -45 -215 -45q-120 0 -211 36q-96 38 -160 105q-65 65 -104 160q-37 90 -37 200z" />
<glyph unicode="d" horiz-adv-x="1304" d="M111 479q0 111 36 199q37 91 103 160q61 64 156 106q88 39 204 39q105 0 203 -49q99 -50 160 -143h4v755h139v-1548h-139v162l-4 2q-63 -93 -160 -139q-102 -48 -203 -48q-116 0 -204 39q-93 41 -156 107q-66 69 -103 160q-36 88 -36 198zM262 477q0 -78 25 -151 q24 -70 71 -123q49 -56 113 -84q70 -31 154 -31q77 0 147 31q68 30 117 82q52 55 78 123q28 73 28 153q0 81 -28 154q-26 68 -78 123q-49 52 -117 82t-147 30q-87 0 -154 -30t-113 -82v-2q-47 -53 -71 -123q-25 -73 -25 -152z" />
<glyph unicode="e" horiz-adv-x="1171" d="M115 481q0 111 37 201q38 93 102 160q62 65 154 104q87 37 190 37q115 0 199 -37t143 -102l-4 4q57 -62 88 -152q31 -88 31 -184v-31q0 -23 -2 -35h-795q3 -68 31 -135q27 -64 73 -110q47 -47 111 -74q69 -29 137 -29q110 0 189 49q80 50 121 115l104 -82 q-84 -106 -190 -153t-224 -47q-110 0 -198 36q-95 39 -158 105q-64 67 -102 160q-37 90 -37 200zM258 557l655 -4q-6 136 -86 225q-81 90 -231 90q-70 0 -129 -24q-58 -24 -105 -68q-46 -46 -73 -102q-28 -58 -31 -117z" />
<glyph unicode="f" horiz-adv-x="604" d="M23 846v117h200v262q0 163 80 258q79 94 246 94q17 0 57 -4q31 -3 58 -12l-25 -123q-27 8 -43 10q-28 4 -49 4q-54 0 -92 -18q-39 -18 -56 -52q-23 -37 -28 -79q-6 -47 -6 -99v-246h225l-2 -112h-226v-842h-139v842h-200z" />
<glyph unicode="g" horiz-adv-x="1294" d="M109 494q0 105 36 190q38 90 103 158q62 65 155 106q88 39 205 39q104 0 205 -49t160 -141h4v166h139v-951q0 -73 -22 -166q-20 -86 -80 -161q-59 -74 -160 -123t-260 -49q-135 0 -252 51q-123 54 -207 141l103 107q57 -72 157 -125q98 -52 209 -52q99 0 172 31 q71 30 117 82q41 49 63 121q21 67 21 145v181h-4q-57 -91 -158 -140t-207 -49q-115 0 -205 37t-155 102q-66 65 -103 154q-36 85 -36 195zM262 496q0 -74 25 -144q23 -65 71 -119q45 -51 113 -81q70 -31 154 -31q82 0 147 26q68 27 117 76q52 52 78 117q28 70 28 152 q0 73 -28 143q-25 63 -78 119q-49 52 -117 82t-147 30q-87 0 -154 -30t-113 -82v4q-48 -54 -71 -119q-25 -70 -25 -143z" />
<glyph unicode="h" horiz-adv-x="1193" d="M188 0v1548h140v-747l4 -2q41 84 129 133t190 49q183 0 275 -109t92 -286v-588h-139v530q0 71 -13 138q-10 53 -41 106q-30 44 -80 68q-49 24 -127 24q-53 0 -108 -22q-50 -20 -92 -68q-43 -49 -66 -117q-24 -71 -24 -165v-492h-140z" />
<glyph unicode="i" horiz-adv-x="512" d="M158 1325q0 45 30 72q31 28 68 28t68 -28q30 -27 30 -72t-30 -72q-31 -28 -68 -28t-68 28q-30 27 -30 72zM186 0v958h140v-958h-140z" />
<glyph unicode="j" horiz-adv-x="514" d="M-55 -477l16 112q27 -8 45 -10q32 -4 45 -4q39 0 70 17q28 15 43 43q13 24 20 65q6 38 6 84v1126h140v-1149q0 -52 -13 -112q-11 -52 -43 -98q-31 -42 -84 -66q-55 -25 -135 -25q-3 0 -53 5q-30 3 -57 12zM160 1325q0 45 30 72q31 28 68 28t68 -28q30 -27 30 -72t-30 -72 q-31 -28 -68 -28t-68 28q-30 27 -30 72z" />
<glyph unicode="k" horiz-adv-x="1044" d="M188 0v1548h140v-1022h6l442 432h201l-483 -438l532 -520h-205l-487 504h-6v-504h-140z" />
<glyph unicode="l" horiz-adv-x="516" d="M188 0v1548h140v-1548h-140z" />
<glyph unicode="m" horiz-adv-x="1808" d="M176 958h133q3 -47 6 -86q2 -31 2 -77h5l-5 -7q41 83 127 136t191 53q43 0 82 -8q40 -8 84 -31q37 -22 73 -64q39 -45 60 -100q50 100 135 152q86 53 203 53q182 0 274 -109t92 -286v-588h-139v530q0 153 -55 244q-56 92 -191 92q-75 0 -129 -31q-55 -32 -84 -79 q-34 -51 -49 -117q-14 -60 -14 -131v-510h-139v559q0 57 -11 129q-8 55 -34 98q-27 41 -74 62q-49 22 -117 22q-46 0 -98 -22q-49 -21 -90 -68q-43 -49 -66 -117q-24 -71 -24 -165v-492h-140v748q0 59 -2 100q-3 56 -6 110z" />
<glyph unicode="n" horiz-adv-x="1189" d="M176 958l131 -2q3 -47 6 -86q2 -31 2 -77h4q40 81 134 135q92 53 194 53q183 0 275 -109t92 -286v-588h-140v530q0 76 -12 138q-10 53 -41 106q-30 44 -80 68t-127 24q-53 0 -108 -22q-50 -20 -92 -68q-43 -49 -66 -117q-24 -71 -24 -165v-492h-140v748q0 59 -2 100 q-3 56 -6 110z" />
<glyph unicode="o" horiz-adv-x="1251" d="M115 479q0 111 37 201q39 95 104 160q66 66 162 104q93 37 205 37q115 0 208 -37q96 -38 162 -104q67 -67 105 -160q37 -90 37 -201q0 -110 -37 -200q-38 -93 -105 -160t-162 -105q-93 -37 -208 -37q-112 0 -205 37q-94 38 -162 105q-65 65 -104 160q-37 90 -37 200z M262 481q0 -78 25 -151q24 -70 71 -123q48 -54 115 -84q70 -31 152 -31q81 0 151 31q67 30 115 84q49 55 72 123q24 70 24 151t-24 152q-23 68 -72 123q-45 51 -115 82q-67 30 -151 30q-85 0 -152 -30q-70 -31 -115 -82q-47 -53 -71 -123q-25 -73 -25 -152z" />
<glyph unicode="p" horiz-adv-x="1300" d="M184 -494v1450h140v-165h6q58 93 157 143q98 49 201 49q117 0 205 -39q98 -44 158 -106q60 -63 100 -160q37 -90 37 -199q0 -108 -37 -198q-40 -97 -100 -160q-61 -64 -158 -107q-88 -39 -205 -39q-101 0 -201 50q-97 49 -157 139h-6v-658h-140zM305 481q0 -77 29 -153 q26 -68 78 -123q49 -52 116 -82q70 -31 148 -31q83 0 153 31q67 30 115 84v2q46 52 70 123q24 70 24 151t-24 152t-70 123q-45 51 -115 82q-67 30 -153 30q-80 0 -148 -30q-67 -30 -116 -82q-52 -55 -78 -123q-29 -76 -29 -154z" />
<glyph unicode="q" horiz-adv-x="1300" d="M113 481q0 109 37 199q38 93 102 160q61 64 156 106q88 39 204 39q103 0 201 -49q101 -50 158 -143h6v165h139v-1450h-139v654l-6 4q-59 -90 -158 -139q-100 -50 -201 -50q-116 0 -204 39q-93 41 -156 107q-64 67 -102 160q-37 90 -37 198zM262 481q0 -78 25 -151 q24 -70 71 -123q49 -56 113 -84q70 -31 154 -31q77 0 147 31q68 30 117 82q52 55 78 123q28 73 28 153q0 81 -28 154q-26 68 -78 123q-49 52 -117 82t-147 30q-87 0 -154 -30t-113 -82v-2q-47 -53 -71 -123q-25 -73 -25 -152z" />
<glyph unicode="r" horiz-adv-x="737" d="M176 961h133q3 -41 6 -87q2 -31 2 -77h5q41 83 122 135q83 53 185 53q35 0 49 -2q30 -4 43 -8l-19 -131q-11 3 -40 6q-36 4 -56 4q-56 0 -106 -20t-88 -64q-39 -45 -64 -115q-24 -67 -24 -163v-492h-140v748v2q0 59 -2 100q-3 62 -6 111z" />
<glyph unicode="s" horiz-adv-x="909" d="M80 160l110 82q36 -62 109 -107q70 -43 158 -43q50 0 86 8q39 9 71 31q31 22 50 53q18 30 18 78q0 77 -74 115t-211 72q-40 8 -92 24q-45 14 -90 47q-41 27 -68 74q-26 45 -26 113q0 71 29 127q26 50 77 86q45 33 109 49q66 16 127 16q105 0 196 -45q96 -47 142 -129 l-107 -74q-31 60 -92 97q-59 36 -141 36q-41 0 -74 -8q-41 -10 -65 -26q-29 -19 -48 -48q-18 -27 -18 -67q0 -68 55 -105t174 -61q171 -35 250 -102q80 -68 80 -181q0 -82 -31 -139q-29 -54 -84 -90q-54 -39 -116 -53q-73 -17 -129 -17q-110 0 -209 45q-100 46 -166 142z " />
<glyph unicode="t" horiz-adv-x="649" d="M8 842v116h199v271h139v-271h270l5 -118h-271v-559q0 -48 10 -86q9 -35 31 -54q19 -22 45 -28q32 -7 58 -7q29 0 59 9q34 10 59 24l6 -121q-42 -17 -77 -22q-41 -6 -86 -6q-34 0 -82 10q-40 8 -80 37q-37 27 -62 78q-24 49 -24 129v598h-199z" />
<glyph unicode="u" horiz-adv-x="1189" d="M178 373v588h139v-531q0 -70 13 -137q12 -59 43 -105q25 -43 78 -69q52 -25 124 -25q51 0 109 23q52 21 92 67q43 49 66 117q24 71 24 166v491h140v-747q0 -59 2 -100q3 -61 6 -111l-129 2q-3 47 -6 86q-2 31 -2 78h-5q-40 -82 -133 -135q-94 -54 -194 -54 q-183 0 -275 109t-92 287z" />
<glyph unicode="v" horiz-adv-x="999" d="M33 958h155l312 -811h4l313 811h150l-389 -958h-154z" />
<glyph unicode="w" horiz-adv-x="1527" d="M53 958h150l231 -778h4l258 778h135l263 -778h4l229 778h148l-304 -958h-151l-256 776h-4l-252 -776h-152z" />
<glyph unicode="x" horiz-adv-x="991" d="M33 0l377 496l-355 462h178l263 -364l262 364h168l-348 -456l380 -502h-180l-284 399l-293 -399h-168z" />
<glyph unicode="y" horiz-adv-x="999" d="M33 958h155l328 -808h4l297 808h152l-477 -1206q-43 -110 -111 -178t-193 -68q-11 0 -61 5q-22 2 -61 10l14 127q28 -10 49 -13q32 -4 53 -4q71 0 111 43q42 46 72 127l77 201z" />
<glyph unicode="z" horiz-adv-x="905" d="M63 0v98l572 744h-543v116h729v-98l-573 -739h594v-121h-779z" />
<glyph unicode="{" horiz-adv-x="614" d="M0 528v131q79 0 121 60q41 59 41 166v364q0 71 18 121q18 49 49 80q33 29 72 41q41 12 84 12h129v-110h-98q-35 0 -62 -17q-24 -15 -37 -41t-16 -55q-4 -40 -4 -59v-365q0 -69 -23 -123q-21 -50 -49 -78q-31 -31 -61 -43q-34 -13 -49 -16v-4q11 -2 49 -17q30 -12 61 -40 q28 -32 49 -80q23 -54 23 -123v-365q0 -19 4 -59q3 -29 16 -55t37 -41q27 -17 62 -17h98v-110h-129q-43 0 -84 12q-39 12 -72 41q-31 31 -49 80q-18 50 -18 121v364q0 107 -41 166t-121 59z" />
<glyph unicode="|" horiz-adv-x="454" d="M166 -512v2048h123v-2048h-123z" />
<glyph unicode="}" horiz-adv-x="614" d="M100 -213h99q35 0 61 16q24 15 37 41t16 56q4 40 4 59v365q0 68 23 122q20 47 53 80q28 28 60 41q38 15 49 17v4q-15 3 -49 16q-33 13 -60 43q-32 29 -53 78q-23 54 -23 123v364q0 20 -4 60q-3 29 -16 55t-37 41q-26 16 -61 16h-99v111h129q43 0 84 -12q39 -12 72 -41 q31 -31 49 -80q19 -52 19 -121v-364q0 -107 41 -166q42 -60 120 -60v-131q-79 0 -120 -59t-41 -166v-365q0 -68 -19 -120q-18 -49 -49 -80q-33 -29 -72 -41q-44 -13 -84 -13h-129v111z" />
<glyph unicode="~" horiz-adv-x="1363" d="M180 567q15 24 49 68q25 32 62 61t76 45q46 19 92 19q50 0 110 -17q54 -15 117 -55q57 -39 111 -61q57 -23 100 -23q38 0 66 14q30 15 55 37q23 20 43 50q5 8 11.5 16.5t13.5 18.5t10 14l84 -82q-11 -19 -50 -68q-27 -34 -61 -61q-40 -31 -78 -47q-46 -19 -92 -19 q-21 0 -53 4q-22 3 -53 13q-32 11 -56 24q-9 5 -30.5 17.5t-34.5 19.5q-62 39 -111 61q-47 21 -98 21q-38 0 -66 -14q-30 -15 -55 -37t-43 -49q-8 -12 -33 -52z" />
<glyph unicode="&#xa2;" d="M178 471q0 96 31 184q30 86 86 154q57 66 135 109q81 44 180 53v129h99v-125q94 -3 178 -43q87 -41 151 -117l-110 -84q-29 48 -88 86t-131 41v-774q72 3 131 41t88 86l110 -84q-64 -76 -151 -117q-84 -40 -178 -43v-125h-99v129q-97 9 -180 54q-81 44 -135 110 q-55 64 -86 152t-31 184zM330 463q0 -71 18 -135t55 -113q33 -44 91 -82q50 -33 116 -45v750q-66 -12 -116 -45q-58 -38 -91 -82q-37 -49 -55 -113t-18 -135z" />
<glyph unicode="&#xa3;" d="M154 -2v123h208v563h-196v123h196v190q0 83 23 177q21 86 74 157q48 68 133 113q82 43 207 43q83 0 172 -29q83 -27 145 -92l-96 -104q-40 46 -98 73q-63 29 -129 29q-95 0 -148 -39q-58 -43 -84 -98q-33 -64 -41 -123q-10 -72 -10 -117v-178h344v-125h-344v-563h537 v-123h-893z" />
<glyph unicode="&#xa5;" d="M20 1450h183l395 -614l393 614h176l-458 -668h292v-110h-337v-215h337v-111h-337v-346h-140v346h-338v111h338v215h-338v110h297z" />
<glyph unicode="&#xa8;" horiz-adv-x="491" d="M-53 1323q0 41 28 72q27 30 74 30t74 -30q29 -32 29 -72t-29 -72q-27 -30 -74 -30t-74 30q-28 31 -28 72zM340 1323q0 40 29 72q27 30 73 30q47 0 74 -30q29 -32 29 -72t-29 -72q-27 -30 -74 -30q-46 0 -73 30q-29 32 -29 72z" />
<glyph unicode="&#xa9;" horiz-adv-x="1638" d="M41 725q0 163 61 303q63 144 168 246q104 104 246 166q140 61 305 61q161 0 301 -61t248 -166q104 -104 166 -246q61 -140 61 -303q0 -161 -61 -301q-62 -142 -166 -246q-110 -107 -248 -164q-142 -59 -301 -59q-163 0 -305 59q-140 58 -246 164q-105 102 -168 246 q-61 140 -61 301zM164 723q0 -133 53 -254t141 -209t209 -141q117 -51 256 -51q137 0 254 51q121 53 209 141t141 209q52 119 52 254q0 137 -52 256q-53 121 -141 209t-209 141t-254 53q-135 0 -256 -53t-209 -141t-141 -209t-53 -256zM377 737q0 101 35 185t96 145 q62 61 147 96q87 35 187 35t190 -43q93 -44 144 -119l-107 -82q-26 45 -90 84q-61 37 -133 37q-73 0 -137 -28q-62 -27 -103 -74q-44 -47 -65 -109q-23 -67 -23 -129t23 -129q21 -61 65 -108q41 -47 99 -74q63 -29 135 -29q62 0 129 31q60 28 112 102l109 -69 q-49 -76 -137 -131q-89 -56 -211 -56q-100 0 -187 35q-85 35 -147 96q-61 61 -96 148t-35 186z" />
<glyph unicode="&#xab;" horiz-adv-x="987" d="M106 492l287 428l96 -68l-235 -360l235 -361l-96 -68zM479 492l287 428l96 -68l-235 -360l235 -361l-96 -68z" />
<glyph unicode="&#xad;" horiz-adv-x="655" d="M98 438v117h459v-117h-459z" />
<glyph unicode="&#xae;" horiz-adv-x="1228" d="M147 1008q0 98 37 182q38 86 101 149q65 62 149 99t182 37q99 0 183 -37t149 -99q64 -63 101 -149q36 -82 36 -182t-36 -179q-39 -86 -101 -145q-62 -62 -149 -100q-84 -37 -183 -37q-98 0 -182 37q-87 38 -149 100q-62 59 -101 145q-37 81 -37 179zM221 1012 q0 -79 31 -152q29 -68 84 -123q53 -56 123 -86q71 -30 153 -30q84 0 154 30t123 86q55 55 84 123q31 73 31 152q0 80 -31 153q-29 68 -84 123t-123 84q-73 31 -154 31q-80 0 -153 -31q-68 -29 -123 -84t-84 -123q-31 -73 -31 -153zM434 750l2 526h185q40 0 71 -8 q35 -9 62 -27t43 -47t16 -72q0 -58 -33 -94q-34 -37 -88 -49l142 -229h-115l-123 219h-68v-219h-94zM526 1044h78q36 0 78 17q37 15 37 61q0 43 -35 58q-32 14 -72 14h-86v-150z" />
<glyph unicode="&#xb4;" horiz-adv-x="491" d="M121 1155l205 295h186l-270 -295h-121z" />
<glyph unicode="&#xb8;" horiz-adv-x="491" d="M29 -428l32 74q42 -18 72 -23q37 -6 76 -6q9 0 37 4q23 3 43 12q21 12 37 31q14 17 14 43q0 41 -31 60q-30 18 -82 18q-15 0 -43 -4q-22 -3 -43 -12l-37 30l127 201h88l-98 -150q3 1 14.5 3.5t18.5 3.5q12 2 41 2q63 0 115 -37q53 -38 53 -111q0 -48 -23 -86 q-21 -34 -55 -55q-37 -23 -78 -31q-39 -8 -84 -8q-34 0 -96 10q-51 8 -98 31z" />
<glyph unicode="&#xbb;" horiz-adv-x="987" d="M125 131l235 361l-235 360l96 68l287 -428l-287 -429zM498 131l235 361l-235 360l96 68l287 -428l-287 -429z" />
<glyph unicode="&#xc0;" horiz-adv-x="1433" d="M20 0l627 1450h144l622 -1450h-164l-159 381h-750l-158 -381h-162zM393 1860h187l204 -295h-120zM395 516h639l-319 770z" />
<glyph unicode="&#xc1;" horiz-adv-x="1433" d="M20 0l627 1450h144l622 -1450h-164l-159 381h-750l-158 -381h-162zM395 516h639l-319 770zM655 1565l205 295h187l-271 -295h-121z" />
<glyph unicode="&#xc4;" horiz-adv-x="1433" d="M20 0l627 1450h144l622 -1450h-164l-159 381h-750l-158 -381h-162zM395 516h639l-319 770zM420 1733q0 39 29 71q28 31 73 31q46 0 74 -31q29 -32 29 -71q0 -40 -29 -72q-28 -31 -74 -31q-45 0 -73 31q-29 32 -29 72zM813 1733q0 39 29 71q28 31 73 31q46 0 74 -31 q29 -32 29 -71q0 -40 -29 -72q-28 -31 -74 -31q-45 0 -73 31q-29 32 -29 72z" />
<glyph unicode="&#xc5;" horiz-adv-x="1433" d="M20 0l627 1450h144l622 -1450h-164l-159 381h-750l-158 -381h-162zM395 516h639l-319 770zM520 1739q0 35 17 78q13 33 43 63q32 28 61 41q37 16 74 16q36 0 76 -16q34 -14 65 -41q30 -30 43 -63q16 -40 16 -78t-16 -78q-14 -35 -43 -64q-28 -28 -65 -43q-35 -14 -76 -14 q-42 0 -74 14t-61 43t-43 64q-17 43 -17 78zM592 1741q0 -52 37 -86q38 -35 88 -35t88 35q37 34 37 86t-37 86q-38 35 -88 35t-88 -35q-37 -34 -37 -86z" />
<glyph unicode="&#xc9;" horiz-adv-x="1212" d="M193 0v1450h899v-131h-752v-500h702v-129h-702v-559h776v-131h-923zM543 1565l205 295h186l-270 -295h-121z" />
<glyph unicode="&#xcb;" horiz-adv-x="1212" d="M193 0v1450h899v-131h-752v-500h702v-129h-702v-559h776v-131h-923zM348 1733q0 39 29 71q28 31 74 31q45 0 73 -31q29 -32 29 -71q0 -40 -29 -72q-28 -31 -73 -31q-46 0 -74 31q-29 32 -29 72zM741 1733q0 39 29 71q28 31 74 31t74 -31t28 -71q0 -41 -28 -72t-74 -31 t-74 31q-29 32 -29 72z" />
<glyph unicode="&#xd6;" horiz-adv-x="1740" d="M113 727q0 171 57 305q59 139 160 240q102 102 239 160q134 57 301 57t301 -57q139 -59 240 -160t160 -240q57 -134 57 -305t-57 -305q-59 -139 -160 -240q-99 -99 -240 -159q-137 -58 -301 -58t-301 58q-139 59 -239 159q-101 101 -160 240q-57 134 -57 305zM276 723 q0 -125 41 -240t117 -200q75 -84 189 -138q108 -51 249 -51q142 0 250 51q114 54 189 138q75 83 116 200q41 115 41 240t-41 240t-116 202q-75 84 -189 138q-108 51 -250 51q-141 0 -249 -51q-114 -54 -189 -138q-77 -89 -117 -202q-41 -115 -41 -240zM571 1733q0 39 29 71 q28 31 74 31t74 -31t28 -71q0 -41 -28 -72t-74 -31t-74 31q-29 32 -29 72zM965 1733q0 40 28 71t74 31t74 -31t28 -71q0 -41 -28 -72t-74 -31t-74 31t-28 72z" />
<glyph unicode="&#xdc;" horiz-adv-x="1454" d="M182 541v909h148v-893q0 -93 20 -172q21 -81 68 -147q46 -64 123 -105t186 -41t186 41t123 105q47 66 68 147q20 79 20 172v893h148v-909q0 -85 -25 -191q-24 -102 -86 -188q-63 -88 -166 -142q-104 -55 -268 -55t-268 55q-103 54 -166 142q-62 86 -86 188 q-25 106 -25 191zM430 1733q0 39 29 71q28 31 73 31q46 0 74 -31q29 -32 29 -71q0 -40 -29 -72q-28 -31 -74 -31q-45 0 -73 31q-29 32 -29 72zM823 1733q0 39 29 71q28 31 74 31q45 0 73 -31q29 -32 29 -71q0 -40 -29 -72q-28 -31 -73 -31q-46 0 -74 31q-29 32 -29 72z" />
<glyph unicode="&#xe0;" horiz-adv-x="1093" d="M106 258q0 111 56 176q54 63 151 98q103 33 217 41q150 11 254 11l-6 30q0 125 -65 187q-64 61 -191 61q-84 0 -160 -31q-73 -30 -124 -81l-78 92q57 57 157 98q95 39 222 39q71 0 145 -23q65 -20 119 -65q53 -44 80 -109q28 -67 28 -153v-420q0 -37 4 -115q3 -51 13 -98 h-125q-8 45 -10 74q-5 68 -5 80h-4q-67 -98 -147 -140q-82 -43 -201 -43q-48 0 -114 17q-60 15 -105 49q-50 35 -80 90q-31 57 -31 135zM252 270q0 -52 18 -86q17 -32 54 -55q38 -23 73 -31q45 -10 80 -10q70 0 131 25q58 24 99 71q40 43 61 101q20 56 20 123v71l-45 -4 q-87 0 -172 -6q-78 -5 -157 -29q-71 -21 -117 -61q-45 -39 -45 -109zM295 1450h186l205 -295h-121z" />
<glyph unicode="&#xe1;" horiz-adv-x="1093" d="M106 258q0 111 56 176q54 63 151 98q103 33 217 41q150 11 254 11l-6 30q0 125 -65 187q-64 61 -191 61q-84 0 -160 -31q-73 -30 -124 -81l-78 92q57 57 157 98q95 39 222 39q71 0 145 -23q65 -20 119 -65q53 -44 80 -109q28 -67 28 -153v-420q0 -37 4 -115q3 -51 13 -98 h-125q-8 45 -10 74q-5 68 -5 80h-4q-67 -98 -147 -140q-82 -43 -201 -43q-48 0 -114 17q-60 15 -105 49q-50 35 -80 90q-31 57 -31 135zM252 270q0 -52 18 -86q17 -32 54 -55q38 -23 73 -31q45 -10 80 -10q70 0 131 25q58 24 99 71q40 43 61 101q20 56 20 123v71l-45 -4 q-87 0 -172 -6q-78 -5 -157 -29q-71 -21 -117 -61q-45 -39 -45 -109zM440 1155l205 295h186l-270 -295h-121z" />
<glyph unicode="&#xe4;" horiz-adv-x="1093" d="M106 258q0 111 56 176q54 63 151 98q103 33 217 41q150 11 254 11l-6 30q0 125 -65 187q-64 61 -191 61q-84 0 -160 -31q-73 -30 -124 -81l-78 92q57 57 157 98q95 39 222 39q71 0 145 -23q65 -20 119 -65q53 -44 80 -109q28 -67 28 -153v-420q0 -37 4 -115q3 -51 13 -98 h-125q-8 45 -10 74q-5 68 -5 80h-4q-67 -98 -147 -140q-82 -43 -201 -43q-48 0 -114 17q-60 15 -105 49q-50 35 -80 90q-31 57 -31 135zM246 1323q0 41 28 72q27 30 74 30t74 -30q29 -32 29 -72t-29 -72q-27 -30 -74 -30t-74 30q-28 31 -28 72zM252 270q0 -52 18 -86 q17 -32 54 -55q38 -23 73 -31q45 -10 80 -10q70 0 131 25q58 24 99 71q40 43 61 101q20 56 20 123v71l-45 -4q-87 0 -172 -6q-78 -5 -157 -29q-71 -21 -117 -61q-45 -39 -45 -109zM639 1323q0 40 29 72q27 30 73 30q47 0 74 -30q29 -32 29 -72t-29 -72q-27 -30 -74 -30 q-46 0 -73 30q-29 32 -29 72z" />
<glyph unicode="&#xe5;" horiz-adv-x="1093" d="M106 258q0 111 56 176q54 63 151 98q103 33 217 41q150 11 254 11l-6 30q0 125 -65 187q-64 61 -191 61q-84 0 -160 -31q-73 -30 -124 -81l-78 92q57 57 157 98q95 39 222 39q71 0 145 -23q65 -20 119 -65q53 -44 80 -109q28 -67 28 -153v-420q0 -37 4 -115q3 -51 13 -98 h-125q-8 45 -10 74q-5 68 -5 80h-4q-67 -98 -147 -140q-82 -43 -201 -43q-48 0 -114 17q-60 15 -105 49q-50 35 -80 90q-31 57 -31 135zM252 270q0 -52 18 -86q17 -32 54 -55q38 -23 73 -31q45 -10 80 -10q70 0 131 25q58 24 99 71q40 43 61 101q20 56 20 123v71l-45 -4 q-87 0 -172 -6q-78 -5 -157 -29q-71 -21 -117 -61q-45 -39 -45 -109zM346 1329q0 38 16 78q13 32 44 63q32 28 61 41q39 17 74 17q33 0 75 -17q36 -14 66 -41q30 -30 43 -63q16 -40 16 -78t-16 -78q-13 -33 -43 -63q-28 -28 -66 -43t-75 -15q-39 0 -74 15q-32 14 -61 43 q-31 31 -44 63q-16 40 -16 78zM418 1331q0 -52 37 -86q38 -35 88 -35t88 35q37 34 37 86t-37 86q-38 35 -88 35t-88 -35q-37 -34 -37 -86z" />
<glyph unicode="&#xe9;" horiz-adv-x="1171" d="M115 481q0 111 37 201q38 93 102 160q62 65 154 104q87 37 190 37q115 0 199 -37t143 -102l-4 4q57 -62 88 -152q31 -88 31 -184v-31q0 -23 -2 -35h-795q3 -68 31 -135q27 -64 73 -110q47 -47 111 -74q69 -29 137 -29q110 0 189 49q80 50 121 115l104 -82 q-84 -106 -190 -153t-224 -47q-110 0 -198 36q-95 39 -158 105q-64 67 -102 160q-37 90 -37 200zM258 557l655 -4q-6 136 -86 225q-81 90 -231 90q-70 0 -129 -24q-58 -24 -105 -68q-46 -46 -73 -102q-28 -58 -31 -117zM514 1155l205 295h186l-270 -295h-121z" />
<glyph unicode="&#xeb;" horiz-adv-x="1171" d="M115 481q0 111 37 201q38 93 102 160q62 65 154 104q87 37 190 37q115 0 199 -37t143 -102l-4 4q57 -62 88 -152q31 -88 31 -184v-31q0 -23 -2 -35h-795q3 -68 31 -135q27 -64 73 -110q47 -47 111 -74q69 -29 137 -29q110 0 189 49q80 50 121 115l104 -82 q-84 -106 -190 -153t-224 -47q-110 0 -198 36q-95 39 -158 105q-64 67 -102 160q-37 90 -37 200zM258 557l655 -4q-6 136 -86 225q-81 90 -231 90q-70 0 -129 -24q-58 -24 -105 -68q-46 -46 -73 -102q-28 -58 -31 -117zM313 1323q0 40 29 72q27 30 74 30q46 0 73 -30 q29 -32 29 -72t-29 -72q-27 -30 -73 -30q-47 0 -74 30q-29 32 -29 72zM707 1323q0 41 28 72q27 30 74 30t74 -30q28 -31 28 -72t-28 -72q-27 -30 -74 -30t-74 30q-28 31 -28 72z" />
<glyph unicode="&#xf6;" horiz-adv-x="1251" d="M115 479q0 111 37 201q39 95 104 160q66 66 162 104q93 37 205 37q115 0 208 -37q96 -38 162 -104q67 -67 105 -160q37 -90 37 -201q0 -110 -37 -200q-38 -93 -105 -160t-162 -105q-93 -37 -208 -37q-112 0 -205 37q-94 38 -162 105q-65 65 -104 160q-37 90 -37 200z M262 481q0 -78 25 -151q24 -70 71 -123q48 -54 115 -84q70 -31 152 -31q81 0 151 31q67 30 115 84q49 55 72 123q24 70 24 151t-24 152q-23 68 -72 123q-45 51 -115 82q-67 30 -151 30q-85 0 -152 -30q-70 -31 -115 -82q-47 -53 -71 -123q-25 -73 -25 -152zM326 1323 q0 41 28 72q27 30 74 30t74 -30q28 -31 28 -72t-28 -72q-27 -30 -74 -30t-74 30q-28 31 -28 72zM719 1323q0 40 29 72q27 30 73 30q47 0 74 -30q29 -32 29 -72t-29 -72q-27 -30 -74 -30q-46 0 -73 30q-29 32 -29 72z" />
<glyph unicode="&#xfc;" horiz-adv-x="1189" d="M178 373v588h139v-531q0 -70 13 -137q12 -59 43 -105q25 -43 78 -69q52 -25 124 -25q51 0 109 23q52 21 92 67q43 49 66 117q24 71 24 166v491h140v-747q0 -59 2 -100q3 -61 6 -111l-129 2q-3 47 -6 86q-2 31 -2 78h-5q-40 -82 -133 -135q-94 -54 -194 -54 q-183 0 -275 109t-92 287zM293 1323q0 40 29 72q27 30 73 30q47 0 74 -30q29 -32 29 -72t-29 -72q-27 -30 -74 -30q-46 0 -73 30q-29 32 -29 72zM686 1323q0 40 29 72q27 30 73 30q47 0 74 -30q29 -32 29 -72t-29 -72q-27 -30 -74 -30q-46 0 -73 30q-29 32 -29 72z" />
<glyph unicode="&#x2c6;" horiz-adv-x="491" d="M-59 1155l223 295h164l223 -295h-135l-170 221l-170 -221h-135z" />
<glyph unicode="&#x2da;" horiz-adv-x="491" d="M49 1329q0 35 17 78q13 33 43 63q32 28 61 41q39 17 74 17q32 0 75 -17q36 -14 66 -41q30 -30 43 -63q16 -40 16 -78t-16 -78q-13 -33 -43 -63q-28 -28 -66 -43q-37 -15 -75 -15q-39 0 -74 15q-32 14 -61 43q-30 30 -43 63q-17 43 -17 78zM121 1331q0 -52 37 -86 q38 -35 88 -35t88 35q37 34 37 86t-37 86q-38 35 -88 35t-88 -35q-37 -34 -37 -86z" />
<glyph unicode="&#x2dc;" horiz-adv-x="491" d="M-82 1176q4 30 19 79q11 37 34 70q21 27 54 47q32 19 77 19q36 0 74 -15q31 -13 74 -33q38 -15 72 -30q39 -17 65 -17q46 0 68 31q21 29 30 72h88q-6 -41 -18 -78q-11 -36 -35 -66q-22 -32 -55 -49q-35 -18 -80 -18q-38 0 -76 14q-34 12 -73 33t-68 33q-32 14 -68 14 q-45 0 -67 -31q-22 -32 -31 -71z" />
<glyph unicode="&#x2000;" horiz-adv-x="968" />
<glyph unicode="&#x2001;" horiz-adv-x="1937" />
<glyph unicode="&#x2002;" horiz-adv-x="968" />
<glyph unicode="&#x2003;" horiz-adv-x="1937" />
<glyph unicode="&#x2004;" horiz-adv-x="645" />
<glyph unicode="&#x2005;" horiz-adv-x="484" />
<glyph unicode="&#x2006;" horiz-adv-x="322" />
<glyph unicode="&#x2007;" horiz-adv-x="322" />
<glyph unicode="&#x2008;" horiz-adv-x="242" />
<glyph unicode="&#x2009;" horiz-adv-x="387" />
<glyph unicode="&#x200a;" horiz-adv-x="107" />
<glyph unicode="&#x2010;" horiz-adv-x="655" d="M98 438v117h459v-117h-459z" />
<glyph unicode="&#x2011;" horiz-adv-x="655" d="M98 438v117h459v-117h-459z" />
<glyph unicode="&#x2012;" horiz-adv-x="655" d="M98 438v117h459v-117h-459z" />
<glyph unicode="&#x2013;" horiz-adv-x="819" d="M61 438v117h697v-117h-697z" />
<glyph unicode="&#x2014;" horiz-adv-x="1228" d="M61 438v117h1106v-117h-1106z" />
<glyph unicode="&#x2018;" horiz-adv-x="454" d="M86 969l166 481h117l-138 -481h-145z" />
<glyph unicode="&#x2019;" horiz-adv-x="454" d="M86 969l137 481h146l-166 -481h-117z" />
<glyph unicode="&#x201a;" horiz-adv-x="454" d="M86 -287l137 482h146l-166 -482h-117z" />
<glyph unicode="&#x201c;" horiz-adv-x="792" d="M86 969l166 481h117l-138 -481h-145zM424 969l166 481h117l-138 -481h-145z" />
<glyph unicode="&#x201d;" horiz-adv-x="792" d="M86 969l137 481h146l-166 -481h-117zM424 969l137 481h146l-166 -481h-117z" />
<glyph unicode="&#x201e;" horiz-adv-x="792" d="M86 -287l137 482h146l-166 -482h-117zM424 -287l137 482h146l-166 -482h-117z" />
<glyph unicode="&#x2026;" horiz-adv-x="2048" d="M231 96q0 42 31 78q30 35 80 35t80 -35q31 -36 31 -78t-31 -78q-30 -34 -80 -34t-80 34q-31 36 -31 78zM913 96q0 42 31 78q30 35 80 35t80 -35q31 -36 31 -78t-31 -78q-30 -34 -80 -34t-80 34q-31 36 -31 78zM1595 96q0 42 31 78q30 35 80 35t80 -35q31 -36 31 -78 t-31 -78q-30 -34 -80 -34t-80 34q-31 36 -31 78z" />
<glyph unicode="&#x202f;" horiz-adv-x="387" />
<glyph unicode="&#x2039;" horiz-adv-x="645" d="M121 492l287 428l96 -68l-236 -360l236 -361l-96 -68z" />
<glyph unicode="&#x203a;" horiz-adv-x="645" d="M141 131l236 361l-236 360l97 68l286 -428l-286 -429z" />
<glyph unicode="&#x205f;" horiz-adv-x="484" />
<glyph unicode="&#x20ac;" d="M29 487l41 113h100q-3 22 -6 55q-2 23 -2 62q0 46 2 71q3 39 6 62h-141l41 113h116q25 118 84 223q54 96 136 166q80 68 178 102q100 35 209 35q81 0 165 -19q80 -18 140 -49l-51 -125l12 2q-61 35 -117 48q-69 16 -141 16q-179 0 -295 -107q-117 -108 -160 -290h615 l-37 -113h-596q-2 -20 -6 -66q-5 -58 -5 -67q0 -37 2 -60q1 -10 7 -59h524l-37 -113h-473q15 -90 55 -159t103 -123q59 -53 135 -80q82 -29 164 -29q76 0 147 19q69 18 129 61l60 -115q-67 -46 -158 -71q-92 -25 -201 -25q-124 0 -225 43q-103 44 -176 117q-76 70 -123 166 q-49 100 -66 196h-155z" />
<glyph unicode="&#x2122;" horiz-adv-x="2048" d="M147 1339v111h674v-111h-272v-733h-123v733h-279zM997 606v844h191l264 -647l264 647h185v-844h-123v709h-4l-285 -709h-80l-285 709h-4v-709h-123z" />
<glyph unicode="&#x25fc;" horiz-adv-x="962" d="M0 0v963h963v-963h-963z" />
</font>
</defs>
</svg>
